<svg width="26" height="26" viewBox="0 0 26 26" fill="none" xmlns="http://www.w3.org/2000/svg">
<path d="M13 0C10.4288 0 7.91543 0.762437 5.77759 2.1909C3.63975 3.61935 1.97351 5.64968 0.989572 8.02512C0.0056327 10.4006 -0.251811 13.0144 0.249797 15.5362C0.751405 18.0579 1.98953 20.3743 3.80762 22.1924C5.6257 24.0105 7.94208 25.2486 10.4638 25.7502C12.9856 26.2518 15.5995 25.9944 17.9749 25.0104C20.3503 24.0265 22.3807 22.3603 23.8091 20.2224C25.2376 18.0846 26 15.5712 26 13C25.9964 9.5533 24.6256 6.24882 22.1884 3.81163C19.7512 1.37445 16.4467 0.00363977 13 0ZM13 24C10.8244 24 8.69767 23.3549 6.88873 22.1462C5.07979 20.9375 3.66989 19.2195 2.83733 17.2095C2.00477 15.1995 1.78693 12.9878 2.21137 10.854C2.63581 8.72022 3.68345 6.7602 5.22183 5.22183C6.76021 3.68345 8.72022 2.6358 10.854 2.21136C12.9878 1.78692 15.1995 2.00476 17.2095 2.83733C19.2195 3.66989 20.9375 5.07979 22.1462 6.88873C23.3549 8.69767 24 10.8244 24 13C23.9967 15.9164 22.8367 18.7123 20.7745 20.7745C18.7123 22.8367 15.9164 23.9967 13 24ZM14.5 13C14.5 13.2967 14.412 13.5867 14.2472 13.8334C14.0824 14.08 13.8481 14.2723 13.574 14.3858C13.2999 14.4993 12.9983 14.5291 12.7074 14.4712C12.4164 14.4133 12.1491 14.2704 11.9393 14.0607C11.7296 13.8509 11.5867 13.5836 11.5288 13.2926C11.471 13.0017 11.5007 12.7001 11.6142 12.426C11.7277 12.1519 11.92 11.9176 12.1667 11.7528C12.4133 11.588 12.7033 11.5 13 11.5C13.3978 11.5 13.7794 11.658 14.0607 11.9393C14.342 12.2206 14.5 12.6022 14.5 13ZM20 13C20 13.2967 19.912 13.5867 19.7472 13.8334C19.5824 14.08 19.3481 14.2723 19.074 14.3858C18.7999 14.4993 18.4983 14.5291 18.2074 14.4712C17.9164 14.4133 17.6491 14.2704 17.4393 14.0607C17.2296 13.8509 17.0867 13.5836 17.0288 13.2926C16.9709 13.0017 17.0007 12.7001 17.1142 12.426C17.2277 12.1519 17.42 11.9176 17.6667 11.7528C17.9133 11.588 18.2033 11.5 18.5 11.5C18.8978 11.5 19.2794 11.658 19.5607 11.9393C19.842 12.2206 20 12.6022 20 13ZM9.00001 13C9.00001 13.2967 8.91203 13.5867 8.74721 13.8334C8.58239 14.08 8.34812 14.2723 8.07403 14.3858C7.79994 14.4993 7.49834 14.5291 7.20737 14.4712C6.9164 14.4133 6.64912 14.2704 6.43935 14.0607C6.22957 13.8509 6.08671 13.5836 6.02883 13.2926C5.97095 13.0017 6.00065 12.7001 6.11419 12.426C6.22772 12.1519 6.41998 11.9176 6.66665 11.7528C6.91332 11.588 7.20333 11.5 7.50001 11.5C7.89783 11.5 8.27936 11.658 8.56067 11.9393C8.84197 12.2206 9.00001 12.6022 9.00001 13Z" fill="#B2B3B9"/>
</svg>
