<svg width="24" height="24" viewBox="0 0 24 24" fill="none" xmlns="http://www.w3.org/2000/svg">
  <path d="M3 3L21 21" stroke="#B2B3B9" stroke-width="1.5" stroke-linecap="round" />
  <path d="M10.6 10.6C10.2 10.99 10 11.48 10 12C10 13.1 10.9 14 12 14C12.52 14 13.01 13.8 13.4 13.4" stroke="#B2B3B9" stroke-width="1.5" stroke-linecap="round" />
  <path d="M6.5 6.8C4.6 8.1 3.3 10 2.5 12C3.8 15.2 7.3 18 12 18C13.7 18 15.2 17.6 16.5 16.9" stroke="#B2B3B9" stroke-width="1.5" stroke-linecap="round" />
  <path d="M9.3 5.2C10.1 5 11 4.9 12 4.9C16.7 4.9 20.2 7.7 21.5 11C21.2 11.8 20.8 12.6 20.2 13.3" stroke="#B2B3B9" stroke-width="1.5" stroke-linecap="round" />
</svg>
