<svg width="22" height="22" viewBox="0 0 22 22" fill="none" xmlns="http://www.w3.org/2000/svg">
<path d="M16.9873 16.0162C17.1156 16.145 17.1876 16.3195 17.1876 16.5013C17.1876 16.6831 17.1156 16.8576 16.9873 16.9864C16.8936 17.0784 14.6798 19.25 11 19.25C7.7868 19.25 5.45445 17.325 4.125 15.8254V17.875C4.125 18.0573 4.05257 18.2322 3.92364 18.3611C3.7947 18.4901 3.61984 18.5625 3.4375 18.5625C3.25516 18.5625 3.0803 18.4901 2.95136 18.3611C2.82243 18.2322 2.75 18.0573 2.75 17.875V13.75C2.75 13.5677 2.82243 13.3928 2.95136 13.2639C3.0803 13.1349 3.25516 13.0625 3.4375 13.0625H7.5625C7.74484 13.0625 7.9197 13.1349 8.04864 13.2639C8.17757 13.3928 8.25 13.5677 8.25 13.75C8.25 13.9323 8.17757 14.1072 8.04864 14.2361C7.9197 14.3651 7.74484 14.4375 7.5625 14.4375H4.76437C5.82312 15.7566 7.99219 17.875 11 17.875C14.0938 17.875 15.9964 16.0308 16.0153 16.0119C16.1448 15.8836 16.3199 15.812 16.5022 15.8128C16.6844 15.8136 16.8589 15.8868 16.9873 16.0162ZM18.5625 3.4375C18.3802 3.4375 18.2053 3.50993 18.0764 3.63886C17.9474 3.7678 17.875 3.94266 17.875 4.125V6.17461C16.5455 4.675 14.2132 2.75 11 2.75C7.32016 2.75 5.10641 4.92164 5.01359 5.01359C4.88436 5.14237 4.81158 5.31721 4.81126 5.49964C4.81094 5.68208 4.8831 5.85718 5.01187 5.98641C5.14065 6.11564 5.31549 6.18842 5.49793 6.18874C5.68036 6.18906 5.85546 6.1169 5.98469 5.98813C6.00359 5.96922 7.90625 4.125 11 4.125C14.0078 4.125 16.1769 6.24336 17.2356 7.5625H14.4375C14.2552 7.5625 14.0803 7.63493 13.9514 7.76386C13.8224 7.8928 13.75 8.06766 13.75 8.25C13.75 8.43234 13.8224 8.6072 13.9514 8.73614C14.0803 8.86507 14.2552 8.9375 14.4375 8.9375H18.5625C18.7448 8.9375 18.9197 8.86507 19.0486 8.73614C19.1776 8.6072 19.25 8.43234 19.25 8.25V4.125C19.25 3.94266 19.1776 3.7678 19.0486 3.63886C18.9197 3.50993 18.7448 3.4375 18.5625 3.4375Z" fill="#515161"/>
</svg>
